<svg xmlns="http://www.w3.org/2000/svg" style="display:none" aria-hidden="true">
<symbol id="i-atlas" viewBox="0 0 24 24"><g fill="none" stroke="currentColor" stroke-width="2" stroke-linecap="round" stroke-linejoin="round"><circle cx="12" cy="8" r="5"/><path d="M7 8h10M12 3c2.5 3 2.5 7 0 10M12 3c-2.5 3-2.5 7 0 10"/><path d="M8.5 13.5L7 18M15.5 13.5L17 18"/></g><circle cx="12" cy="20" r="1.4" fill="currentColor"/></symbol>
<symbol id="i-moneyprint" viewBox="0 0 24 24"><g fill="none" stroke="currentColor" stroke-width="2" stroke-linecap="round" stroke-linejoin="round"><path d="M7 10V5h10v5"/><rect x="4" y="10" width="16" height="7" rx="1.5"/><rect x="7.5" y="14.5" width="9" height="5.5" rx="1"/><circle cx="12" cy="17.2" r="1.4"/></g><circle cx="16.8" cy="13" r="1" fill="currentColor"/></symbol>
<symbol id="i-cockpit" viewBox="0 0 24 24"><g fill="none" stroke="currentColor" stroke-width="2" stroke-linecap="round" stroke-linejoin="round"><circle cx="12" cy="12" r="8.5"/><path d="M12 12l3.8-2.8M12 4.5V6M20 12h-1.5M12 20v-1.5M4 12h1.5"/></g><circle cx="12" cy="12" r="1.3" fill="currentColor"/></symbol>
<symbol id="i-datawarehouse" viewBox="0 0 24 24"><g fill="none" stroke="currentColor" stroke-width="2" stroke-linecap="round" stroke-linejoin="round"><path d="M4 10l8-6 8 6"/><path d="M5.5 9.5V20h13V9.5"/><ellipse cx="12" cy="12.6" rx="3.4" ry="1.3"/><path d="M8.6 12.6v3.6c0 .8 1.5 1.3 3.4 1.3s3.4-.5 3.4-1.3v-3.6"/></g></symbol>
<symbol id="i-enrichment" viewBox="0 0 24 24"><g fill="none" stroke="currentColor" stroke-width="2" stroke-linecap="round" stroke-linejoin="round"><path d="M12 4l4.5 4L12 19 7.5 8z"/><path d="M7.5 8h9"/><path d="M18.5 4.5v3M17 6h3M5 12.5v2.5M3.8 13.7h2.4"/></g></symbol>
<symbol id="i-devops" viewBox="0 0 24 24"><g fill="none" stroke="currentColor" stroke-width="2" stroke-linecap="round" stroke-linejoin="round"><circle cx="12" cy="12" r="3.2"/><path d="M12 3v2.6M12 18.4V21M21 12h-2.6M5.6 12H3M18.4 5.6l-1.9 1.9M7.5 16.5l-1.9 1.9M18.4 18.4l-1.9-1.9M7.5 7.5L5.6 5.6"/></g></symbol>
<symbol id="i-pseo" viewBox="0 0 24 24"><g fill="none" stroke="currentColor" stroke-width="2" stroke-linecap="round" stroke-linejoin="round"><path d="M8 3v7a4 4 0 008 0V3"/><path d="M5.5 3.5h5M13.5 3.5h5"/></g><circle cx="12" cy="20" r="1" fill="currentColor"/><circle cx="8.6" cy="18.4" r="0.8" fill="currentColor"/><circle cx="15.4" cy="18.4" r="0.8" fill="currentColor"/></symbol>
<symbol id="i-radar" viewBox="0 0 24 24"><g fill="none" stroke="currentColor" stroke-width="2" stroke-linecap="round" stroke-linejoin="round"><circle cx="12" cy="12" r="8.5"/><circle cx="12" cy="12" r="4.3"/><path d="M12 12L18.5 7"/></g><circle cx="15.6" cy="9" r="1.1" fill="currentColor"/></symbol>
<symbol id="i-marketplaces" viewBox="0 0 24 24"><g fill="none" stroke="currentColor" stroke-width="2" stroke-linecap="round" stroke-linejoin="round"><path d="M4 9l1.2-4h13.6L20 9"/><path d="M4 9c0 1.3 1.2 2 2.7 2S9.3 10.3 9.3 9M9.3 9c0 1.3 1.2 2 2.7 2s2.7-.7 2.7-2M14.7 9c0 1.3 1.2 2 2.6 2S20 10.3 20 9"/><path d="M5.5 11v9h13v-9"/><path d="M9.7 20v-4.2h4.6V20"/></g></symbol>
<symbol id="i-iris" viewBox="0 0 24 24"><g fill="none" stroke="currentColor" stroke-width="2" stroke-linecap="round" stroke-linejoin="round"><path d="M2.5 12S6 5.5 12 5.5 21.5 12 21.5 12 18 18.5 12 18.5 2.5 12 2.5 12z"/><circle cx="12" cy="12" r="3.2"/></g><circle cx="12" cy="12" r="1" fill="currentColor"/></symbol>
<symbol id="i-suppliers" viewBox="0 0 24 24"><g fill="none" stroke="currentColor" stroke-width="2" stroke-linecap="round" stroke-linejoin="round"><path d="M12 3v6M9 6.5l3 3 3-3"/><rect x="4" y="12" width="16" height="8" rx="1"/><path d="M4 15.2h16"/></g></symbol>
<symbol id="i-wimo" viewBox="0 0 24 24"><g fill="none" stroke="currentColor" stroke-width="2" stroke-linecap="round" stroke-linejoin="round"><path d="M5 9l7-3.2L19 9v7l-7 3.2L5 16z"/><path d="M5 9l7 3.2L19 9M12 12.2v7"/><path d="M10.4 3.4c.8-1 3-.7 3 .7 0 1-1.3 1-1.3 2"/></g><circle cx="9.6" cy="12.4" r="1" fill="currentColor"/><circle cx="14.4" cy="12.4" r="1" fill="currentColor"/></symbol>
<symbol id="i-warehouse" viewBox="0 0 24 24"><g fill="none" stroke="currentColor" stroke-width="2" stroke-linecap="round" stroke-linejoin="round"><circle cx="7" cy="18.5" r="1.8"/><circle cx="14.5" cy="18.5" r="1.8"/><path d="M5 16.7V9h5.5l3 4v3.7"/><path d="M13.5 6v10.5"/><rect x="15.5" y="8.5" width="4.5" height="4.5" rx=".6"/><path d="M13.5 16.5h6.5"/></g></symbol>
<symbol id="i-lab" viewBox="0 0 24 24"><g fill="none" stroke="currentColor" stroke-width="2" stroke-linecap="round" stroke-linejoin="round"><path d="M9 3h6M10 3v6l-4.3 8.2A2 2 0 007.5 20h9a2 2 0 001.8-2.8L14 9V3"/><path d="M7.6 15h8.8"/></g><circle cx="11" cy="17.4" r="0.7" fill="currentColor"/><circle cx="13.6" cy="18.3" r="0.6" fill="currentColor"/></symbol>
<symbol id="i-boomerang" viewBox="0 0 24 24"><g fill="none" stroke="currentColor" stroke-width="2.2" stroke-linecap="round" stroke-linejoin="round"><path d="M6.5 4l4 8.5L19 16"/><path d="M15 4.5a6 6 0 013.2 5.2"/></g></symbol>
<symbol id="i-cs" viewBox="0 0 24 24"><g fill="none" stroke="currentColor" stroke-width="2" stroke-linecap="round" stroke-linejoin="round"><path d="M5 13v-1a7 7 0 0114 0v1"/><rect x="3.4" y="12.4" width="3.6" height="5.2" rx="1.4"/><rect x="17" y="12.4" width="3.6" height="5.2" rx="1.4"/><path d="M18.8 17.6V19a2 2 0 01-2 2H13"/></g></symbol>
<symbol id="i-finance" viewBox="0 0 24 24"><g fill="none" stroke="currentColor" stroke-width="2" stroke-linecap="round" stroke-linejoin="round"><ellipse cx="11.5" cy="13" rx="7" ry="5.3"/><circle cx="17.8" cy="12.6" r="2"/><path d="M9.5 8.2l1.4 1.8M10.5 7.5V6"/><path d="M7 18v1.6M11 18.2v1.6"/><path d="M10.3 7.6h2"/></g><circle cx="18.3" cy="12.6" r="0.5" fill="currentColor"/></symbol>
<symbol id="i-legal" viewBox="0 0 24 24"><g fill="none" stroke="currentColor" stroke-width="2" stroke-linecap="round" stroke-linejoin="round"><rect x="12.4" y="3.2" width="4.5" height="7" rx="1" transform="rotate(45 14.65 6.7)"/><path d="M12 8.2l-6.2 6.2"/><path d="M4 18.5h7.5"/></g></symbol>
<symbol id="i-hr" viewBox="0 0 24 24"><g fill="none" stroke="currentColor" stroke-width="2" stroke-linecap="round" stroke-linejoin="round"><rect x="5" y="6" width="14" height="14" rx="2"/><path d="M9.2 4h5.6v2a1 1 0 01-1 1h-3.6a1 1 0 01-1-1z"/><path d="M8.2 11h7.6"/><path d="M9.2 15.4c.9-1.2 4.7-1.2 5.6 0"/></g><circle cx="10" cy="14" r="0.5" fill="currentColor"/><circle cx="14" cy="14" r="0.5" fill="currentColor"/></symbol>
<symbol id="i-parceltracking" viewBox="0 0 24 24"><g fill="none" stroke="currentColor" stroke-width="2" stroke-linecap="round" stroke-linejoin="round"><rect x="3.5" y="12" width="7" height="6.5" rx="1"/><path d="M11 15.2h4" stroke-dasharray="1.4 1.8"/><path d="M18 7.5c2 0 3.6 1.6 3.6 3.6 0 2.4-3.6 5.6-3.6 5.6s-3.6-3.2-3.6-5.6C14.4 9.1 16 7.5 18 7.5z"/></g><circle cx="18" cy="11.1" r="1.1" fill="currentColor"/></symbol>
</svg>
